<svg width="56" height="55" viewBox="0 0 56 55" fill="none" xmlns="http://www.w3.org/2000/svg">
<circle opacity="0.65" cx="28" cy="27.5" r="27.5" fill="#18959D"/>
<path d="M24 33.2273C25.499 33.2273 26.7143 31.9706 26.7143 30.4205C26.7143 28.8703 25.499 27.6136 24 27.6136C22.5009 27.6136 21.2857 28.8703 21.2857 30.4205C21.2857 31.9706 22.5009 33.2273 24 33.2273Z" fill="#FAFAFA"/>
<path d="M31.4643 24.8068H28.9621C28.8348 24.8068 28.6771 24.7217 28.5541 24.5875L27.4539 22.792C27.4365 22.7636 27.4171 22.7364 27.3958 22.7109C27.0158 22.2526 26.5022 22 25.9509 22H22.0491C21.4978 22 20.9842 22.2526 20.6042 22.7109C20.5829 22.7364 20.5635 22.7636 20.5461 22.792L19.4459 24.5902C19.3518 24.6963 19.2195 24.8094 19.0804 24.8094V24.4586C19.0804 24.2725 19.0089 24.094 18.8816 23.9624C18.7544 23.8308 18.5818 23.7569 18.4018 23.7569H17.3839C17.204 23.7569 17.0314 23.8308 16.9041 23.9624C16.7768 24.094 16.7054 24.2725 16.7054 24.4586V24.8094H16.5357C15.996 24.81 15.4785 25.032 15.0969 25.4267C14.7152 25.8213 14.5006 26.3564 14.5 26.9146V35.3324C14.5006 35.8905 14.7152 36.4256 15.0969 36.8203C15.4785 37.2149 15.996 37.4369 16.5357 37.4375H31.4643C32.004 37.4369 32.5215 37.2149 32.9031 36.8203C33.2848 36.4256 33.4994 35.8905 33.5 35.3324V26.9119C33.4994 26.3538 33.2848 25.8187 32.9031 25.424C32.5215 25.0294 32.004 24.8074 31.4643 24.8068ZM24 34.6307C23.1947 34.6307 22.4076 34.3838 21.738 33.9211C21.0685 33.4585 20.5466 32.801 20.2385 32.0316C19.9303 31.2623 19.8497 30.4158 20.0068 29.5991C20.1639 28.7824 20.5517 28.0322 21.1211 27.4434C21.6905 26.8546 22.4159 26.4536 23.2057 26.2911C23.9955 26.1287 24.8141 26.212 25.5581 26.5307C26.302 26.8494 26.9379 27.389 27.3853 28.0814C27.8326 28.7737 28.0714 29.5878 28.0714 30.4205C28.0702 31.5367 27.6408 32.6068 26.8776 33.3961C26.1143 34.1854 25.0794 34.6294 24 34.6307Z" fill="#FAFAFA"/>
<path d="M43.5 19H35.5M39.5 15V23V15Z" stroke="#FAFAFA" stroke-linecap="round" stroke-linejoin="round"/>
</svg>
