<svg width="34" height="36" viewBox="0 0 34 36" fill="none" xmlns="http://www.w3.org/2000/svg">
<path d="M23.3727 2.61802C21.809 0.929727 19.6249 0 17.2143 0C14.7908 0 12.5995 0.924101 11.043 2.60195C9.46968 4.29828 8.70309 6.60371 8.88309 9.09316C9.23986 14.0046 12.9772 17.9999 17.2143 17.9999C21.4514 17.9999 25.1823 14.0054 25.5447 9.09477C25.7271 6.62782 24.9557 4.32721 23.3727 2.61802ZM31.3568 35.9998H3.07182C2.70159 36.0046 2.33495 35.9268 1.99857 35.7721C1.66218 35.6174 1.36452 35.3896 1.12723 35.1054C0.604921 34.481 0.394391 33.6285 0.55028 32.7662C1.22848 29.0039 3.34502 25.8435 6.67172 23.6249C9.62717 21.6553 13.3709 20.5713 17.2143 20.5713C21.0577 20.5713 24.8014 21.6561 27.7569 23.6249C31.0835 25.8427 33.2001 29.0031 33.8783 32.7654C34.0342 33.6277 33.8237 34.4802 33.3013 35.1046C33.0641 35.389 32.7665 35.6169 32.4301 35.7718C32.0937 35.9266 31.727 36.0045 31.3568 35.9998Z" fill="#FAFAFA"/>
</svg>
